{"title":"Captain America Civil War (2016) HDCAM - RCCL","uid":14499858,"size":1567682341,"categoryP":"video","categoryS":"movies","magnet":"?xt=urn:btih:2cf6f1ebaafd3fb32a3992a707b8b97a4135171e&amp;dn=Captain+America+Civil+War+%282016%29+HDCAM+-+RCCL&amp;tr=udp%3A%2F%2Ftracker.leechers-paradise.org%3A6969&amp;tr=udp%3A%2F%2Fzer0day.ch%3A1337&amp;tr=udp%3A%2F%2Fopen.demonii.com%3A1337&amp;tr=udp%3A%2F%2Ftracker.coppersurfer.tk%3A6969&amp;tr=udp%3A%2F%2Fexodus.desync.com%3A6969","seeders":10,"leechers":4,"uploader":".BONE.","files":1,"time":1462166326,"description":"Complete name : I:Captain America Civil War (2016) HDCAM - RCCL.mp4\r\nFormat : MPEG-4\r\nFormat profile : Base Media / Version 2\r\nCodec ID : mp42 (isom/iso2/avc1/mp41)\r\nFile size : 1.46 GiB\r\nDuration : 2h 17mn\r\nOverall bit rate mode : Variable\r\nOverall bit rate : 1 516 Kbps\r\nEncoded date : UTC 2036-02-06 06:28:16\r\nTagged date : UTC 2036-02-06 06:28:16\r\nWriting application : HandBrake 0.10.2 2015060900\r\n\r\nVideo\r\nID : 1\r\nFormat : AVC\r\nFormat/Info : Advanced Video Codec\r\nFormat profile :   \r\nFormat settings, CABAC : Yes\r\nFormat settings, ReFrames : 4 frames\r\nCodec ID : avc1\r\nCodec ID/Info : Advanced Video Coding\r\nDuration : 2h 17mn\r\nBit rate : 1 359 Kbps\r\nWidth : 400 pixels\r\nHeight : 224 pixels\r\nDisplay aspect ratio : 16:9\r\nFrame rate mode : Variable\r\nFrame rate : 25.000 fps\r\nMinimum frame rate : 16.304 fps\r\nMaximum frame rate : 25.000 fps\r\nColor space : YUV\r\nChroma subsampling : 4:2:0\r\nBit depth : 8 bits\r\nScan type : Progressive\r\nBits/(Pixel*Frame) : 0.607\r\nStream size : 1.30 GiB (89%)\r\nEncoded date : UTC 2036-02-06 06:28:16\r\nTagged date : UTC 2036-02-06 06:28:16\r\nColor range : Limited\r\nColor primaries : BT.601 PAL\r\nTransfer characteristics : BT.709\r\nMatrix coefficients : BT.601\r\n\r\nAudio\r\nID : 2\r\nFormat : AAC\r\nFormat/Info : Advanced Audio Codec\r\nFormat profile : LC\r\nCodec ID : 40\r\nDuration : 2h 17mn\r\nBit rate mode : Variable\r\nBit rate : 160 Kbps\r\nChannel(s) : 2 channels\r\nChannel positions : Front: L R\r\nSampling rate : 48.0 KHz\r\nFrame rate : 46.875 fps (1024 spf)\r\nCompression mode : Lossy\r\nStream size : 158 MiB (11%)\r\nTitle : Stereo / Stereo\r\nDefault : Yes\r\nAlternate group : 1\r\nEncoded date : UTC 2036-02-06 06:28:16\r\nTagged date : UTC 2036-02-06 06:28:16\r\n \nhttp://www.imdb.com/title/tt3498820/","torrent":{"xt":"urn:btih:2cf6f1ebaafd3fb32a3992a707b8b97a4135171e","amp;dn":"Captain+America+Civil+War+%282016%29+HDCAM+-+RCCL","amp;tr":["udp%3A%2F%2Ftracker.leechers-paradise.org%3A6969","udp%3A%2F%2Fzer0day.ch%3A1337","udp%3A%2F%2Fopen.demonii.com%3A1337","udp%3A%2F%2Ftracker.coppersurfer.tk%3A6969","udp%3A%2F%2Fexodus.desync.com%3A6969"],"infoHash":"2cf6f1ebaafd3fb32a3992a707b8b97a4135171e","infoHashBuffer":{"type":"Buffer","data":[44,246,241,235,170,253,63,179,42,57,146,167,7,184,185,122,65,53,23,30]},"announce":[],"urlList":[]}}